<mxfile host="app.diagrams.net" agent="Mozilla/5.0 (Windows NT 10.0; Win64; x64) AppleWebKit/537.36 (KHTML, like Gecko) Chrome/136.0.0.0 Safari/537.36" version="26.2.14">
  <diagram name="ページ1" id="boy7bIerFo7GVD40t-Bb">
    <mxGraphModel dx="1680" dy="1035" grid="1" gridSize="10" guides="1" tooltips="1" connect="1" arrows="1" fold="1" page="1" pageScale="1" pageWidth="827" pageHeight="1169" math="0" shadow="0">
      <root>
        <mxCell id="0" />
        <mxCell id="1" parent="0" />
        <mxCell id="Vv1BXS9gKUCPTP4hqwD7-1" value="" style="rounded=0;whiteSpace=wrap;html=1;" vertex="1" parent="1">
          <mxGeometry x="-223" y="356" width="791" height="2115" as="geometry" />
        </mxCell>
        <mxCell id="Vv1BXS9gKUCPTP4hqwD7-2" value="" style="rounded=0;whiteSpace=wrap;html=1;" vertex="1" parent="1">
          <mxGeometry x="-14" y="1680" width="337" height="321" as="geometry" />
        </mxCell>
        <mxCell id="Vv1BXS9gKUCPTP4hqwD7-3" value="" style="rounded=0;whiteSpace=wrap;html=1;" vertex="1" parent="1">
          <mxGeometry x="-14" y="1028" width="337" height="612" as="geometry" />
        </mxCell>
        <mxCell id="Vv1BXS9gKUCPTP4hqwD7-4" value="" style="rounded=0;whiteSpace=wrap;html=1;" vertex="1" parent="1">
          <mxGeometry x="-14" y="427" width="337" height="587" as="geometry" />
        </mxCell>
        <mxCell id="Vv1BXS9gKUCPTP4hqwD7-5" value="&lt;div&gt;UC203&lt;/div&gt;新規資料の登録" style="ellipse;whiteSpace=wrap;html=1;" vertex="1" parent="1">
          <mxGeometry x="91" y="1320" width="120" height="80" as="geometry" />
        </mxCell>
        <mxCell id="Vv1BXS9gKUCPTP4hqwD7-6" value="&lt;div&gt;UC204&lt;/div&gt;貸出資料の確認" style="ellipse;whiteSpace=wrap;html=1;" vertex="1" parent="1">
          <mxGeometry x="91" y="1420" width="120" height="80" as="geometry" />
        </mxCell>
        <mxCell id="Vv1BXS9gKUCPTP4hqwD7-7" value="図書館管理システム" style="rounded=0;whiteSpace=wrap;html=1;" vertex="1" parent="1">
          <mxGeometry x="-184" y="390" width="120" height="60" as="geometry" />
        </mxCell>
        <mxCell id="Vv1BXS9gKUCPTP4hqwD7-8" value="&lt;div&gt;UC101&lt;/div&gt;新規会員登録" style="ellipse;whiteSpace=wrap;html=1;" vertex="1" parent="1">
          <mxGeometry x="94.5" y="523" width="120" height="80" as="geometry" />
        </mxCell>
        <mxCell id="Vv1BXS9gKUCPTP4hqwD7-9" value="&lt;div&gt;UC102&lt;/div&gt;会員情報の&lt;span style=&quot;background-color: transparent; color: light-dark(rgb(0, 0, 0), rgb(255, 255, 255));&quot;&gt;変更&lt;/span&gt;" style="ellipse;whiteSpace=wrap;html=1;" vertex="1" parent="1">
          <mxGeometry x="97" y="631" width="120" height="80" as="geometry" />
        </mxCell>
        <mxCell id="Vv1BXS9gKUCPTP4hqwD7-10" value="&lt;div&gt;UC103&lt;/div&gt;会員の退会" style="ellipse;whiteSpace=wrap;html=1;" vertex="1" parent="1">
          <mxGeometry x="97" y="727" width="120" height="80" as="geometry" />
        </mxCell>
        <mxCell id="Vv1BXS9gKUCPTP4hqwD7-11" value="&lt;div&gt;図書館管理システム&lt;/div&gt;&lt;div&gt;会員管理機能&lt;/div&gt;" style="rounded=0;whiteSpace=wrap;html=1;" vertex="1" parent="1">
          <mxGeometry x="9" y="446" width="120" height="60" as="geometry" />
        </mxCell>
        <mxCell id="Vv1BXS9gKUCPTP4hqwD7-12" style="edgeStyle=none;curved=1;rounded=0;orthogonalLoop=1;jettySize=auto;html=1;entryX=0;entryY=0.5;entryDx=0;entryDy=0;fontSize=12;startSize=8;endSize=8;" edge="1" parent="1" source="Vv1BXS9gKUCPTP4hqwD7-15" target="Vv1BXS9gKUCPTP4hqwD7-8">
          <mxGeometry relative="1" as="geometry" />
        </mxCell>
        <mxCell id="Vv1BXS9gKUCPTP4hqwD7-13" style="edgeStyle=none;curved=1;rounded=0;orthogonalLoop=1;jettySize=auto;html=1;fontSize=12;startSize=8;endSize=8;" edge="1" parent="1" source="Vv1BXS9gKUCPTP4hqwD7-15" target="Vv1BXS9gKUCPTP4hqwD7-9">
          <mxGeometry relative="1" as="geometry" />
        </mxCell>
        <mxCell id="Vv1BXS9gKUCPTP4hqwD7-14" style="edgeStyle=none;curved=1;rounded=0;orthogonalLoop=1;jettySize=auto;html=1;entryX=0;entryY=0.5;entryDx=0;entryDy=0;fontSize=12;startSize=8;endSize=8;" edge="1" parent="1" source="Vv1BXS9gKUCPTP4hqwD7-15" target="Vv1BXS9gKUCPTP4hqwD7-10">
          <mxGeometry relative="1" as="geometry" />
        </mxCell>
        <mxCell id="Vv1BXS9gKUCPTP4hqwD7-15" value="来館者" style="shape=umlActor;verticalLabelPosition=bottom;verticalAlign=top;html=1;outlineConnect=0;" vertex="1" parent="1">
          <mxGeometry x="-105" y="667" width="30" height="60" as="geometry" />
        </mxCell>
        <mxCell id="Vv1BXS9gKUCPTP4hqwD7-16" style="rounded=0;orthogonalLoop=1;jettySize=auto;html=1;entryX=1;entryY=0.5;entryDx=0;entryDy=0;" edge="1" parent="1" source="Vv1BXS9gKUCPTP4hqwD7-18" target="Vv1BXS9gKUCPTP4hqwD7-40">
          <mxGeometry relative="1" as="geometry" />
        </mxCell>
        <mxCell id="Vv1BXS9gKUCPTP4hqwD7-17" style="rounded=0;orthogonalLoop=1;jettySize=auto;html=1;entryX=1;entryY=0.5;entryDx=0;entryDy=0;" edge="1" parent="1" source="Vv1BXS9gKUCPTP4hqwD7-18" target="Vv1BXS9gKUCPTP4hqwD7-45">
          <mxGeometry relative="1" as="geometry" />
        </mxCell>
        <mxCell id="Vv1BXS9gKUCPTP4hqwD7-18" value="受付係&lt;div&gt;・司書&lt;/div&gt;" style="shape=umlActor;verticalLabelPosition=bottom;verticalAlign=top;html=1;outlineConnect=0;" vertex="1" parent="1">
          <mxGeometry x="400" y="656" width="30" height="60" as="geometry" />
        </mxCell>
        <mxCell id="Vv1BXS9gKUCPTP4hqwD7-19" value="&lt;div&gt;図書館管理システム&lt;/div&gt;資料管理機能" style="rounded=0;whiteSpace=wrap;html=1;" vertex="1" parent="1">
          <mxGeometry x="1" y="1042" width="120" height="60" as="geometry" />
        </mxCell>
        <mxCell id="Vv1BXS9gKUCPTP4hqwD7-20" value="&lt;div&gt;UC201&lt;/div&gt;資料の貸出" style="ellipse;whiteSpace=wrap;html=1;" vertex="1" parent="1">
          <mxGeometry x="91" y="1119" width="120" height="80" as="geometry" />
        </mxCell>
        <mxCell id="Vv1BXS9gKUCPTP4hqwD7-21" value="&lt;div&gt;UC202&lt;/div&gt;資料の返却" style="ellipse;whiteSpace=wrap;html=1;" vertex="1" parent="1">
          <mxGeometry x="91" y="1228" width="120" height="80" as="geometry" />
        </mxCell>
        <mxCell id="Vv1BXS9gKUCPTP4hqwD7-22" value="" style="rounded=0;whiteSpace=wrap;html=1;" vertex="1" parent="1">
          <mxGeometry x="-7.5" y="2044" width="337" height="321" as="geometry" />
        </mxCell>
        <mxCell id="Vv1BXS9gKUCPTP4hqwD7-23" value="&lt;div&gt;図書館管理システム&lt;/div&gt;予約管理機能" style="rounded=0;whiteSpace=wrap;html=1;" vertex="1" parent="1">
          <mxGeometry x="22.5" y="2061" width="120" height="60" as="geometry" />
        </mxCell>
        <mxCell id="Vv1BXS9gKUCPTP4hqwD7-24" value="&lt;div&gt;UC301&lt;/div&gt;資料の貸出予約" style="ellipse;whiteSpace=wrap;html=1;" vertex="1" parent="1">
          <mxGeometry x="101" y="2193" width="120" height="80" as="geometry" />
        </mxCell>
        <mxCell id="Vv1BXS9gKUCPTP4hqwD7-25" style="edgeStyle=none;curved=1;rounded=0;orthogonalLoop=1;jettySize=auto;html=1;entryX=0;entryY=0.5;entryDx=0;entryDy=0;fontSize=12;startSize=8;endSize=8;" edge="1" parent="1" source="Vv1BXS9gKUCPTP4hqwD7-27" target="Vv1BXS9gKUCPTP4hqwD7-20">
          <mxGeometry relative="1" as="geometry" />
        </mxCell>
        <mxCell id="Vv1BXS9gKUCPTP4hqwD7-26" style="edgeStyle=none;curved=1;rounded=0;orthogonalLoop=1;jettySize=auto;html=1;entryX=0;entryY=0.5;entryDx=0;entryDy=0;fontSize=12;startSize=8;endSize=8;" edge="1" parent="1" source="Vv1BXS9gKUCPTP4hqwD7-27" target="Vv1BXS9gKUCPTP4hqwD7-21">
          <mxGeometry relative="1" as="geometry" />
        </mxCell>
        <mxCell id="Vv1BXS9gKUCPTP4hqwD7-27" value="来館者" style="shape=umlActor;verticalLabelPosition=bottom;verticalAlign=top;html=1;outlineConnect=0;" vertex="1" parent="1">
          <mxGeometry x="-105" y="1284" width="30" height="60" as="geometry" />
        </mxCell>
        <mxCell id="Vv1BXS9gKUCPTP4hqwD7-28" style="edgeStyle=none;curved=1;rounded=0;orthogonalLoop=1;jettySize=auto;html=1;entryX=1;entryY=0.5;entryDx=0;entryDy=0;fontSize=12;startSize=8;endSize=8;" edge="1" parent="1" source="Vv1BXS9gKUCPTP4hqwD7-31" target="Vv1BXS9gKUCPTP4hqwD7-5">
          <mxGeometry relative="1" as="geometry" />
        </mxCell>
        <mxCell id="Vv1BXS9gKUCPTP4hqwD7-29" style="edgeStyle=none;curved=1;rounded=0;orthogonalLoop=1;jettySize=auto;html=1;entryX=1;entryY=0.5;entryDx=0;entryDy=0;fontSize=12;startSize=8;endSize=8;" edge="1" parent="1" source="Vv1BXS9gKUCPTP4hqwD7-31" target="Vv1BXS9gKUCPTP4hqwD7-6">
          <mxGeometry relative="1" as="geometry" />
        </mxCell>
        <mxCell id="Vv1BXS9gKUCPTP4hqwD7-30" style="rounded=0;orthogonalLoop=1;jettySize=auto;html=1;entryX=1;entryY=0.5;entryDx=0;entryDy=0;" edge="1" parent="1" source="Vv1BXS9gKUCPTP4hqwD7-31" target="Vv1BXS9gKUCPTP4hqwD7-41">
          <mxGeometry relative="1" as="geometry" />
        </mxCell>
        <mxCell id="Vv1BXS9gKUCPTP4hqwD7-31" value="受付係&lt;div&gt;・司書&lt;/div&gt;" style="shape=umlActor;verticalLabelPosition=bottom;verticalAlign=top;html=1;outlineConnect=0;" vertex="1" parent="1">
          <mxGeometry x="400" y="1273" width="30" height="60" as="geometry" />
        </mxCell>
        <mxCell id="Vv1BXS9gKUCPTP4hqwD7-32" style="edgeStyle=none;curved=1;rounded=0;orthogonalLoop=1;jettySize=auto;html=1;entryX=0;entryY=0.5;entryDx=0;entryDy=0;fontSize=12;startSize=8;endSize=8;" edge="1" parent="1" source="Vv1BXS9gKUCPTP4hqwD7-33" target="Vv1BXS9gKUCPTP4hqwD7-24">
          <mxGeometry relative="1" as="geometry" />
        </mxCell>
        <mxCell id="Vv1BXS9gKUCPTP4hqwD7-33" value="来館者" style="shape=umlActor;verticalLabelPosition=bottom;verticalAlign=top;html=1;outlineConnect=0;" vertex="1" parent="1">
          <mxGeometry x="-106.5" y="2203" width="30" height="60" as="geometry" />
        </mxCell>
        <mxCell id="Vv1BXS9gKUCPTP4hqwD7-34" value="&lt;div&gt;UC401&lt;/div&gt;ログイン" style="ellipse;whiteSpace=wrap;html=1;" vertex="1" parent="1">
          <mxGeometry x="101" y="1752" width="120" height="80" as="geometry" />
        </mxCell>
        <mxCell id="Vv1BXS9gKUCPTP4hqwD7-35" value="&lt;div&gt;UC402&lt;/div&gt;ログアウト" style="ellipse;whiteSpace=wrap;html=1;" vertex="1" parent="1">
          <mxGeometry x="103.5" y="1856" width="120" height="80" as="geometry" />
        </mxCell>
        <mxCell id="Vv1BXS9gKUCPTP4hqwD7-36" style="edgeStyle=none;curved=1;rounded=0;orthogonalLoop=1;jettySize=auto;html=1;entryX=0;entryY=0.5;entryDx=0;entryDy=0;fontSize=12;startSize=8;endSize=8;" edge="1" parent="1" source="Vv1BXS9gKUCPTP4hqwD7-38" target="Vv1BXS9gKUCPTP4hqwD7-34">
          <mxGeometry relative="1" as="geometry" />
        </mxCell>
        <mxCell id="Vv1BXS9gKUCPTP4hqwD7-37" style="edgeStyle=none;curved=1;rounded=0;orthogonalLoop=1;jettySize=auto;html=1;fontSize=12;startSize=8;endSize=8;" edge="1" parent="1" source="Vv1BXS9gKUCPTP4hqwD7-38" target="Vv1BXS9gKUCPTP4hqwD7-35">
          <mxGeometry relative="1" as="geometry" />
        </mxCell>
        <mxCell id="Vv1BXS9gKUCPTP4hqwD7-38" value="来館者" style="shape=umlActor;verticalLabelPosition=bottom;verticalAlign=top;html=1;outlineConnect=0;" vertex="1" parent="1">
          <mxGeometry x="-116.5" y="1841" width="30" height="60" as="geometry" />
        </mxCell>
        <mxCell id="Vv1BXS9gKUCPTP4hqwD7-39" value="&lt;div&gt;図書館管理システム&lt;/div&gt;ログイン機能" style="rounded=0;whiteSpace=wrap;html=1;" vertex="1" parent="1">
          <mxGeometry x="-6" y="1685" width="120" height="60" as="geometry" />
        </mxCell>
        <mxCell id="Vv1BXS9gKUCPTP4hqwD7-40" value="&lt;div&gt;UC104&lt;/div&gt;&lt;div&gt;会員情報の一覧表示検索・&lt;span style=&quot;background-color: transparent; color: light-dark(rgb(0, 0, 0), rgb(255, 255, 255));&quot;&gt;変更&lt;/span&gt;&lt;/div&gt;" style="ellipse;whiteSpace=wrap;html=1;" vertex="1" parent="1">
          <mxGeometry x="94.5" y="833" width="120" height="80" as="geometry" />
        </mxCell>
        <mxCell id="Vv1BXS9gKUCPTP4hqwD7-41" value="&lt;div&gt;UC205&lt;/div&gt;資料の確認&lt;div&gt;・&lt;span style=&quot;background-color: transparent; color: light-dark(rgb(0, 0, 0), rgb(255, 255, 255));&quot;&gt;削除&lt;/span&gt;&lt;/div&gt;" style="ellipse;whiteSpace=wrap;html=1;" vertex="1" parent="1">
          <mxGeometry x="91" y="1520" width="120" height="80" as="geometry" />
        </mxCell>
        <mxCell id="Vv1BXS9gKUCPTP4hqwD7-42" style="rounded=0;orthogonalLoop=1;jettySize=auto;html=1;entryX=1;entryY=0.5;entryDx=0;entryDy=0;" edge="1" parent="1" source="Vv1BXS9gKUCPTP4hqwD7-44" target="Vv1BXS9gKUCPTP4hqwD7-34">
          <mxGeometry relative="1" as="geometry" />
        </mxCell>
        <mxCell id="Vv1BXS9gKUCPTP4hqwD7-43" style="rounded=0;orthogonalLoop=1;jettySize=auto;html=1;" edge="1" parent="1" source="Vv1BXS9gKUCPTP4hqwD7-44" target="Vv1BXS9gKUCPTP4hqwD7-35">
          <mxGeometry relative="1" as="geometry" />
        </mxCell>
        <mxCell id="Vv1BXS9gKUCPTP4hqwD7-44" value="受付係&lt;div&gt;・司書&lt;/div&gt;" style="shape=umlActor;verticalLabelPosition=bottom;verticalAlign=top;html=1;outlineConnect=0;" vertex="1" parent="1">
          <mxGeometry x="393" y="1841" width="30" height="60" as="geometry" />
        </mxCell>
        <mxCell id="Vv1BXS9gKUCPTP4hqwD7-45" value="&lt;div&gt;UC105&lt;/div&gt;管理者登録" style="ellipse;whiteSpace=wrap;html=1;" vertex="1" parent="1">
          <mxGeometry x="88" y="924" width="120" height="80" as="geometry" />
        </mxCell>
      </root>
    </mxGraphModel>
  </diagram>
</mxfile>
